<svg width="221" height="213" viewBox="0 0 221 213" fill="none" xmlns="http://www.w3.org/2000/svg">
<path d="M149.685 57.4307L122.785 69.3379L188.504 87.8715L154.251 23.1513L149.979 57.036L149.944 57.3163L149.685 57.4307Z" fill="black" stroke="black"/>
<mask id="mask0_3_9" style="mask-type:alpha" maskUnits="userSpaceOnUse" x="2" y="12" width="214" height="201">
<path d="M153.401 106.497C143.791 110.212 134.805 99.8606 139.834 90.868L174.786 28.3691C178.887 21.0368 173.586 12 165.185 12H13.4255C6.62813 12 1.45766 18.1035 2.57513 24.8084L32.2801 203.038C33.2191 208.672 38.314 212.65 44.0076 212.195L176.546 201.592C181.015 201.234 184.82 198.2 186.163 193.922L215.097 101.792C217.858 93 209.231 84.9134 200.635 88.2365L153.401 106.497Z" fill="#C4C4C4"/>
</mask>
<g mask="url(#mask0_3_9)">
<path d="M109.44 197C65.8155 197 29.9404 163.026 29.9404 120.5C29.9404 77.9744 65.8155 44 109.44 44C153.065 44 188.94 77.9744 188.94 120.5C188.94 163.026 153.065 197 109.44 197Z" stroke="black" stroke-width="14"/>
</g>
<path d="M86.3394 84.6364V161H72.5059V98.0969H72.0585L54.198 109.507V96.8292L73.1771 84.6364H86.3394ZM132.277 162.044C127.305 162.044 122.856 161.112 118.928 159.248C115.001 157.358 111.881 154.773 109.569 151.492C107.282 148.211 106.064 144.457 105.915 140.231H119.338C119.587 143.363 120.942 145.924 123.403 147.912C125.864 149.876 128.822 150.858 132.277 150.858C134.986 150.858 137.398 150.237 139.511 148.994C141.623 147.751 143.289 146.023 144.507 143.811C145.725 141.598 146.322 139.075 146.297 136.241C146.322 133.358 145.713 130.798 144.47 128.56C143.227 126.323 141.524 124.571 139.361 123.303C137.199 122.01 134.713 121.364 131.904 121.364C129.617 121.339 127.367 121.762 125.155 122.632C122.943 123.502 121.19 124.645 119.898 126.062L107.406 124.011L111.396 84.6364H155.693V96.1953H122.843L120.643 116.442H121.091C122.508 114.777 124.509 113.397 127.094 112.303C129.679 111.185 132.513 110.625 135.595 110.625C140.219 110.625 144.345 111.719 147.975 113.907C151.604 116.069 154.463 119.052 156.551 122.855C158.639 126.659 159.683 131.009 159.683 135.906C159.683 140.952 158.514 145.451 156.178 149.404C153.866 153.331 150.647 156.426 146.52 158.688C142.419 160.925 137.671 162.044 132.277 162.044Z" fill="black"/>
</svg>
