<svg width="221" height="213" viewBox="0 0 221 213" fill="none" xmlns="http://www.w3.org/2000/svg">
<path d="M71.2551 57.4307L98.1556 69.3379L32.4367 87.8715L66.6893 23.1513L70.9614 57.036L70.9968 57.3163L71.2551 57.4307Z" fill="black" stroke="black"/>
<mask id="mask0_2_22" style="mask-type:alpha" maskUnits="userSpaceOnUse" x="5" y="12" width="214" height="201">
<path d="M67.5391 106.497C77.1493 110.212 86.1353 99.8606 81.1063 90.868L46.1543 28.3691C42.0538 21.0368 47.3539 12 55.7549 12H207.515C214.312 12 219.483 18.1035 218.365 24.8084L188.66 203.038C187.721 208.672 182.626 212.65 176.933 212.195L44.3948 201.592C39.9256 201.234 36.1206 198.2 34.7773 193.922L5.84385 101.792C3.08264 93 11.7093 84.9134 20.305 88.2365L67.5391 106.497Z" fill="#C4C4C4"/>
</mask>
<g mask="url(#mask0_2_22)">
<path d="M111.5 197C155.125 197 191 163.026 191 120.5C191 77.9744 155.125 44 111.5 44C67.8751 44 32 77.9744 32 120.5C32 163.026 67.8751 197 111.5 197Z" stroke="black" stroke-width="14"/>
</g>
<path d="M89.399 84.6364V161H75.5655V98.0969H75.1181L57.2576 109.507V96.8292L76.2367 84.6364H89.399ZM135.336 162.044C130.365 162.044 125.915 161.112 121.988 159.248C118.06 157.358 114.941 154.773 112.629 151.492C110.342 148.211 109.124 144.457 108.975 140.231H122.398C122.646 143.363 124.001 145.924 126.462 147.912C128.923 149.876 131.881 150.858 135.336 150.858C138.046 150.858 140.457 150.237 142.57 148.994C144.683 147.751 146.349 146.023 147.567 143.811C148.785 141.598 149.381 139.075 149.356 136.241C149.381 133.358 148.772 130.798 147.529 128.56C146.286 126.323 144.584 124.571 142.421 123.303C140.258 122.01 137.773 121.364 134.964 121.364C132.677 121.339 130.427 121.762 128.215 122.632C126.002 123.502 124.25 124.645 122.957 126.062L110.466 124.011L114.456 84.6364H158.753V96.1953H125.903L123.703 116.442H124.15C125.567 114.777 127.568 113.397 130.154 112.303C132.739 111.185 135.573 110.625 138.655 110.625C143.279 110.625 147.405 111.719 151.034 113.907C154.664 116.069 157.522 119.052 159.61 122.855C161.698 126.659 162.742 131.009 162.742 135.906C162.742 140.952 161.574 145.451 159.237 149.404C156.926 153.331 153.706 156.426 149.58 158.688C145.479 160.925 140.731 162.044 135.336 162.044Z" fill="black"/>
</svg>
